<svg width="168" height="168" viewBox="0 0 168 168" fill="none" xmlns="http://www.w3.org/2000/svg">
<mask id="mask0_2_365" style="mask-type:luminance" maskUnits="userSpaceOnUse" x="0" y="0" width="168" height="168">
<path d="M84 168C130.392 168 168 130.392 168 84C168 37.6081 130.392 0 84 0C37.6081 0 0 37.6081 0 84C0 130.392 37.6081 168 84 168Z" fill="white"/>
</mask>
<g mask="url(#mask0_2_365)">
<path d="M83.9978 167.998C130.39 167.998 167.998 130.39 167.998 83.9976C167.998 37.6057 130.39 -0.00238037 83.9978 -0.00238037C37.6059 -0.00238037 -0.00218201 37.6057 -0.00218201 83.9976C-0.00218201 130.39 37.6059 167.998 83.9978 167.998Z" fill="black"/>
<path d="M216.737 -7.26044H-48.741V191.849H216.737V-7.26044Z" fill="#2B83FC"/>
<path d="M17.6298 -7.26044H-15.5543V25.9237H17.6298V-7.26044Z" stroke="#8AB0DD" stroke-width="0.33" stroke-miterlimit="10"/>
<path d="M1.03658 25.926C10.2008 25.926 17.6298 18.497 17.6298 9.3328C17.6298 0.168609 10.2008 -7.26044 1.03658 -7.26044C-8.12762 -7.26044 -15.5567 0.168609 -15.5567 9.3328C-15.5567 18.497 -8.12762 25.926 1.03658 25.926Z" stroke="#8AB0DD" stroke-width="0.33" stroke-miterlimit="10"/>
<path d="M-15.5543 9.3328H17.6298" stroke="#8AB0DD" stroke-width="0.33" stroke-miterlimit="10"/>
<path d="M1.03618 25.926V-7.26044" stroke="#8AB0DD" stroke-width="0.33" stroke-miterlimit="10"/>
<path d="M50.8136 -7.26044H17.6295V25.9237H50.8136V-7.26044Z" stroke="#8AB0DD" stroke-width="0.33" stroke-miterlimit="10"/>
<path d="M34.2227 25.926C43.3869 25.926 50.816 18.497 50.816 9.3328C50.816 0.168609 43.3869 -7.26044 34.2227 -7.26044C25.0585 -7.26044 17.6295 0.168609 17.6295 9.3328C17.6295 18.497 25.0585 25.926 34.2227 25.926Z" stroke="#8AB0DD" stroke-width="0.33" stroke-miterlimit="10"/>
<path d="M17.6295 9.3328H50.8136" stroke="#8AB0DD" stroke-width="0.33" stroke-miterlimit="10"/>
<path d="M34.2228 25.926V-7.26044" stroke="#8AB0DD" stroke-width="0.33" stroke-miterlimit="10"/>
<path d="M83.9979 -7.26044H50.8138V25.9237H83.9979V-7.26044Z" stroke="#8AB0DD" stroke-width="0.33" stroke-miterlimit="10"/>
<path d="M67.407 25.926C76.5712 25.926 84.0003 18.497 84.0003 9.3328C84.0003 0.168609 76.5712 -7.26044 67.407 -7.26044C58.2428 -7.26044 50.8138 0.168609 50.8138 9.3328C50.8138 18.497 58.2428 25.926 67.407 25.926Z" stroke="#8AB0DD" stroke-width="0.33" stroke-miterlimit="10"/>
<path d="M50.8138 9.3328H83.9979" stroke="#8AB0DD" stroke-width="0.33" stroke-miterlimit="10"/>
<path d="M67.4071 25.926V-7.26044" stroke="#8AB0DD" stroke-width="0.33" stroke-miterlimit="10"/>
<path d="M117.182 -7.26044H83.9976V25.9237H117.182V-7.26044Z" stroke="#8AB0DD" stroke-width="0.33" stroke-miterlimit="10"/>
<path d="M100.591 25.926C109.755 25.926 117.184 18.497 117.184 9.3328C117.184 0.168609 109.755 -7.26044 100.591 -7.26044C91.4267 -7.26044 83.9976 0.168609 83.9976 9.3328C83.9976 18.497 91.4267 25.926 100.591 25.926Z" stroke="#8AB0DD" stroke-width="0.33" stroke-miterlimit="10"/>
<path d="M83.9976 9.3328H117.184" stroke="#8AB0DD" stroke-width="0.33" stroke-miterlimit="10"/>
<path d="M100.591 25.926V-7.26044" stroke="#8AB0DD" stroke-width="0.33" stroke-miterlimit="10"/>
<path d="M150.368 -7.26044H117.184V25.9237H150.368V-7.26044Z" stroke="#8AB0DD" stroke-width="0.33" stroke-miterlimit="10"/>
<path d="M133.775 25.926C142.939 25.926 150.368 18.497 150.368 9.3328C150.368 0.168609 142.939 -7.26044 133.775 -7.26044C124.611 -7.26044 117.182 0.168609 117.182 9.3328C117.182 18.497 124.611 25.926 133.775 25.926Z" stroke="#8AB0DD" stroke-width="0.33" stroke-miterlimit="10"/>
<path d="M117.184 9.3328H150.368" stroke="#8AB0DD" stroke-width="0.33" stroke-miterlimit="10"/>
<path d="M133.775 25.926V-7.26044" stroke="#8AB0DD" stroke-width="0.33" stroke-miterlimit="10"/>
<path d="M183.553 -7.26044H150.369V25.9237H183.553V-7.26044Z" stroke="#8AB0DD" stroke-width="0.33" stroke-miterlimit="10"/>
<path d="M166.962 25.926C176.126 25.926 183.555 18.497 183.555 9.3328C183.555 0.168609 176.126 -7.26044 166.962 -7.26044C157.798 -7.26044 150.369 0.168609 150.369 9.3328C150.369 18.497 157.798 25.926 166.962 25.926Z" stroke="#8AB0DD" stroke-width="0.33" stroke-miterlimit="10"/>
<path d="M150.369 9.3328H183.553" stroke="#8AB0DD" stroke-width="0.33" stroke-miterlimit="10"/>
<path d="M166.961 25.926V-7.26044" stroke="#8AB0DD" stroke-width="0.33" stroke-miterlimit="10"/>
<path d="M17.6298 25.926H-15.5543V59.1101H17.6298V25.926Z" stroke="#8AB0DD" stroke-width="0.33" stroke-miterlimit="10"/>
<path d="M1.03658 59.1101C10.2008 59.1101 17.6298 51.6811 17.6298 42.5169C17.6298 33.3527 10.2008 25.9237 1.03658 25.9237C-8.12762 25.9237 -15.5567 33.3527 -15.5567 42.5169C-15.5567 51.6811 -8.12762 59.1101 1.03658 59.1101Z" stroke="#8AB0DD" stroke-width="0.33" stroke-miterlimit="10"/>
<path d="M-15.5543 42.5169H17.6298" stroke="#8AB0DD" stroke-width="0.33" stroke-miterlimit="10"/>
<path d="M1.03618 59.1101V25.926" stroke="#8AB0DD" stroke-width="0.33" stroke-miterlimit="10"/>
<path d="M50.8136 25.926H17.6295V59.1101H50.8136V25.926Z" stroke="#8AB0DD" stroke-width="0.33" stroke-miterlimit="10"/>
<path d="M34.2227 59.1101C43.3869 59.1101 50.816 51.6811 50.816 42.5169C50.816 33.3527 43.3869 25.9237 34.2227 25.9237C25.0585 25.9237 17.6295 33.3527 17.6295 42.5169C17.6295 51.6811 25.0585 59.1101 34.2227 59.1101Z" stroke="#8AB0DD" stroke-width="0.33" stroke-miterlimit="10"/>
<path d="M17.6295 42.5169H50.8136" stroke="#8AB0DD" stroke-width="0.33" stroke-miterlimit="10"/>
<path d="M34.2228 59.1101V25.926" stroke="#8AB0DD" stroke-width="0.33" stroke-miterlimit="10"/>
<path d="M83.9979 25.926H50.8138V59.1101H83.9979V25.926Z" stroke="#8AB0DD" stroke-width="0.33" stroke-miterlimit="10"/>
<path d="M67.407 59.1101C76.5712 59.1101 84.0003 51.6811 84.0003 42.5169C84.0003 33.3527 76.5712 25.9237 67.407 25.9237C58.2428 25.9237 50.8138 33.3527 50.8138 42.5169C50.8138 51.6811 58.2428 59.1101 67.407 59.1101Z" stroke="#8AB0DD" stroke-width="0.33" stroke-miterlimit="10"/>
<path d="M50.8138 42.5169H83.9979" stroke="#8AB0DD" stroke-width="0.33" stroke-miterlimit="10"/>
<path d="M67.4071 59.1101V25.926" stroke="#8AB0DD" stroke-width="0.33" stroke-miterlimit="10"/>
<path d="M117.182 25.926H83.9976V59.1101H117.182V25.926Z" stroke="#8AB0DD" stroke-width="0.33" stroke-miterlimit="10"/>
<path d="M100.591 59.1101C109.755 59.1101 117.184 51.6811 117.184 42.5169C117.184 33.3527 109.755 25.9237 100.591 25.9237C91.4267 25.9237 83.9976 33.3527 83.9976 42.5169C83.9976 51.6811 91.4267 59.1101 100.591 59.1101Z" stroke="#8AB0DD" stroke-width="0.33" stroke-miterlimit="10"/>
<path d="M83.9976 42.5169H117.184" stroke="#8AB0DD" stroke-width="0.33" stroke-miterlimit="10"/>
<path d="M100.591 25.926V59.1101" stroke="#8AB0DD" stroke-width="0.33" stroke-miterlimit="10"/>
<path d="M150.368 25.926H117.184V59.1101H150.368V25.926Z" stroke="#8AB0DD" stroke-width="0.33" stroke-miterlimit="10"/>
<path d="M133.775 59.1101C142.939 59.1101 150.368 51.6811 150.368 42.5169C150.368 33.3527 142.939 25.9237 133.775 25.9237C124.611 25.9237 117.182 33.3527 117.182 42.5169C117.182 51.6811 124.611 59.1101 133.775 59.1101Z" stroke="#8AB0DD" stroke-width="0.33" stroke-miterlimit="10"/>
<path d="M117.184 42.5169H150.368" stroke="#8AB0DD" stroke-width="0.33" stroke-miterlimit="10"/>
<path d="M133.775 59.1101V25.926" stroke="#8AB0DD" stroke-width="0.33" stroke-miterlimit="10"/>
<path d="M183.553 25.926H150.369V59.1101H183.553V25.926Z" stroke="#8AB0DD" stroke-width="0.33" stroke-miterlimit="10"/>
<path d="M166.962 59.1101C176.126 59.1101 183.555 51.6811 183.555 42.5169C183.555 33.3527 176.126 25.9237 166.962 25.9237C157.798 25.9237 150.369 33.3527 150.369 42.5169C150.369 51.6811 157.798 59.1101 166.962 59.1101Z" stroke="#8AB0DD" stroke-width="0.33" stroke-miterlimit="10"/>
<path d="M150.369 42.5169H183.553" stroke="#8AB0DD" stroke-width="0.33" stroke-miterlimit="10"/>
<path d="M166.961 59.1101V25.926" stroke="#8AB0DD" stroke-width="0.33" stroke-miterlimit="10"/>
<path d="M17.6298 59.1101H-15.5543V92.2942H17.6298V59.1101Z" stroke="#8AB0DD" stroke-width="0.33" stroke-miterlimit="10"/>
<path d="M1.03658 92.2966C10.2008 92.2966 17.6298 84.8676 17.6298 75.7034C17.6298 66.5392 10.2008 59.1101 1.03658 59.1101C-8.12762 59.1101 -15.5567 66.5392 -15.5567 75.7034C-15.5567 84.8676 -8.12762 92.2966 1.03658 92.2966Z" stroke="#8AB0DD" stroke-width="0.33" stroke-miterlimit="10"/>
<path d="M-15.5543 75.7034H17.6298" stroke="#8AB0DD" stroke-width="0.33" stroke-miterlimit="10"/>
<path d="M1.03618 92.2942V59.1101" stroke="#8AB0DD" stroke-width="0.33" stroke-miterlimit="10"/>
<path d="M50.8136 59.1101H17.6295V92.2942H50.8136V59.1101Z" stroke="#8AB0DD" stroke-width="0.33" stroke-miterlimit="10"/>
<path d="M34.2227 92.2966C43.3869 92.2966 50.816 84.8676 50.816 75.7034C50.816 66.5392 43.3869 59.1101 34.2227 59.1101C25.0585 59.1101 17.6295 66.5392 17.6295 75.7034C17.6295 84.8676 25.0585 92.2966 34.2227 92.2966Z" stroke="#8AB0DD" stroke-width="0.33" stroke-miterlimit="10"/>
<path d="M17.6295 75.7034H50.8136" stroke="#8AB0DD" stroke-width="0.33" stroke-miterlimit="10"/>
<path d="M34.2228 92.2942V59.1101" stroke="#8AB0DD" stroke-width="0.33" stroke-miterlimit="10"/>
<path d="M83.9979 59.1101H50.8138V92.2942H83.9979V59.1101Z" stroke="#8AB0DD" stroke-width="0.33" stroke-miterlimit="10"/>
<path d="M67.407 92.2966C76.5712 92.2966 84.0003 84.8676 84.0003 75.7034C84.0003 66.5392 76.5712 59.1101 67.407 59.1101C58.2428 59.1101 50.8138 66.5392 50.8138 75.7034C50.8138 84.8676 58.2428 92.2966 67.407 92.2966Z" stroke="#8AB0DD" stroke-width="0.33" stroke-miterlimit="10"/>
<path d="M50.8138 75.7034H83.9979" stroke="#8AB0DD" stroke-width="0.33" stroke-miterlimit="10"/>
<path d="M67.4071 92.2942V59.1101" stroke="#8AB0DD" stroke-width="0.33" stroke-miterlimit="10"/>
<path d="M117.182 59.1101H83.9976V92.2942H117.182V59.1101Z" stroke="#8AB0DD" stroke-width="0.33" stroke-miterlimit="10"/>
<path d="M100.591 92.2966C109.755 92.2966 117.184 84.8676 117.184 75.7034C117.184 66.5392 109.755 59.1101 100.591 59.1101C91.4267 59.1101 83.9976 66.5392 83.9976 75.7034C83.9976 84.8676 91.4267 92.2966 100.591 92.2966Z" stroke="#8AB0DD" stroke-width="0.33" stroke-miterlimit="10"/>
<path d="M83.9976 75.7034H117.184" stroke="#8AB0DD" stroke-width="0.33" stroke-miterlimit="10"/>
<path d="M100.591 92.2942V59.1101" stroke="#8AB0DD" stroke-width="0.33" stroke-miterlimit="10"/>
<path d="M150.368 59.1101H117.184V92.2942H150.368V59.1101Z" stroke="#8AB0DD" stroke-width="0.33" stroke-miterlimit="10"/>
<path d="M133.775 92.2966C142.939 92.2966 150.368 84.8676 150.368 75.7034C150.368 66.5392 142.939 59.1101 133.775 59.1101C124.611 59.1101 117.182 66.5392 117.182 75.7034C117.182 84.8676 124.611 92.2966 133.775 92.2966Z" stroke="#8AB0DD" stroke-width="0.33" stroke-miterlimit="10"/>
<path d="M117.184 75.7034H150.368" stroke="#8AB0DD" stroke-width="0.33" stroke-miterlimit="10"/>
<path d="M133.775 92.2942V59.1101" stroke="#8AB0DD" stroke-width="0.33" stroke-miterlimit="10"/>
<path d="M183.553 59.1101H150.369V92.2942H183.553V59.1101Z" stroke="#8AB0DD" stroke-width="0.33" stroke-miterlimit="10"/>
<path d="M166.962 92.2966C176.126 92.2966 183.555 84.8676 183.555 75.7034C183.555 66.5392 176.126 59.1101 166.962 59.1101C157.798 59.1101 150.369 66.5392 150.369 75.7034C150.369 84.8676 157.798 92.2966 166.962 92.2966Z" stroke="#8AB0DD" stroke-width="0.33" stroke-miterlimit="10"/>
<path d="M150.369 75.7034H183.553" stroke="#8AB0DD" stroke-width="0.33" stroke-miterlimit="10"/>
<path d="M166.961 92.2942V59.1101" stroke="#8AB0DD" stroke-width="0.33" stroke-miterlimit="10"/>
<path d="M17.6298 92.2942H-15.5543V125.478H17.6298V92.2942Z" stroke="#8AB0DD" stroke-width="0.33" stroke-miterlimit="10"/>
<path d="M1.03658 125.481C10.2008 125.481 17.6298 118.052 17.6298 108.887C17.6298 99.7233 10.2008 92.2942 1.03658 92.2942C-8.12762 92.2942 -15.5567 99.7233 -15.5567 108.887C-15.5567 118.052 -8.12762 125.481 1.03658 125.481Z" stroke="#8AB0DD" stroke-width="0.33" stroke-miterlimit="10"/>
<path d="M-15.5543 108.887H17.6298" stroke="#8AB0DD" stroke-width="0.33" stroke-miterlimit="10"/>
<path d="M1.03618 125.478V92.2942" stroke="#8AB0DD" stroke-width="0.33" stroke-miterlimit="10"/>
<path d="M50.8136 92.2942H17.6295V125.478H50.8136V92.2942Z" stroke="#8AB0DD" stroke-width="0.33" stroke-miterlimit="10"/>
<path d="M34.2227 125.481C43.3869 125.481 50.816 118.052 50.816 108.887C50.816 99.7233 43.3869 92.2942 34.2227 92.2942C25.0585 92.2942 17.6295 99.7233 17.6295 108.887C17.6295 118.052 25.0585 125.481 34.2227 125.481Z" stroke="#8AB0DD" stroke-width="0.33" stroke-miterlimit="10"/>
<path d="M17.6295 108.887H50.8136" stroke="#8AB0DD" stroke-width="0.33" stroke-miterlimit="10"/>
<path d="M34.2228 125.478V92.2942" stroke="#8AB0DD" stroke-width="0.33" stroke-miterlimit="10"/>
<path d="M83.9979 92.2942H50.8138V125.478H83.9979V92.2942Z" stroke="#8AB0DD" stroke-width="0.33" stroke-miterlimit="10"/>
<path d="M67.407 125.481C76.5712 125.481 84.0003 118.052 84.0003 108.887C84.0003 99.7233 76.5712 92.2942 67.407 92.2942C58.2428 92.2942 50.8138 99.7233 50.8138 108.887C50.8138 118.052 58.2428 125.481 67.407 125.481Z" stroke="#8AB0DD" stroke-width="0.33" stroke-miterlimit="10"/>
<path d="M50.8138 108.887H83.9979" stroke="#8AB0DD" stroke-width="0.33" stroke-miterlimit="10"/>
<path d="M67.4071 125.478V92.2942" stroke="#8AB0DD" stroke-width="0.33" stroke-miterlimit="10"/>
<path d="M117.182 92.2942H83.9976V125.478H117.182V92.2942Z" stroke="#8AB0DD" stroke-width="0.33" stroke-miterlimit="10"/>
<path d="M100.591 125.481C109.755 125.481 117.184 118.052 117.184 108.887C117.184 99.7233 109.755 92.2942 100.591 92.2942C91.4267 92.2942 83.9976 99.7233 83.9976 108.887C83.9976 118.052 91.4267 125.481 100.591 125.481Z" stroke="#8AB0DD" stroke-width="0.33" stroke-miterlimit="10"/>
<path d="M83.9976 108.887H117.184" stroke="#8AB0DD" stroke-width="0.33" stroke-miterlimit="10"/>
<path d="M100.591 125.478V92.2942" stroke="#8AB0DD" stroke-width="0.33" stroke-miterlimit="10"/>
<path d="M150.368 92.2942H117.184V125.478H150.368V92.2942Z" stroke="#8AB0DD" stroke-width="0.33" stroke-miterlimit="10"/>
<path d="M133.775 125.481C142.939 125.481 150.368 118.052 150.368 108.887C150.368 99.7233 142.939 92.2942 133.775 92.2942C124.611 92.2942 117.182 99.7233 117.182 108.887C117.182 118.052 124.611 125.481 133.775 125.481Z" stroke="#8AB0DD" stroke-width="0.33" stroke-miterlimit="10"/>
<path d="M117.184 108.887H150.368" stroke="#8AB0DD" stroke-width="0.33" stroke-miterlimit="10"/>
<path d="M133.775 125.478V92.2942" stroke="#8AB0DD" stroke-width="0.33" stroke-miterlimit="10"/>
<path d="M183.553 92.2942H150.369V125.478H183.553V92.2942Z" stroke="#8AB0DD" stroke-width="0.33" stroke-miterlimit="10"/>
<path d="M166.962 125.481C176.126 125.481 183.555 118.052 183.555 108.887C183.555 99.7233 176.126 92.2942 166.962 92.2942C157.798 92.2942 150.369 99.7233 150.369 108.887C150.369 118.052 157.798 125.481 166.962 125.481Z" stroke="#8AB0DD" stroke-width="0.33" stroke-miterlimit="10"/>
<path d="M150.369 108.887H183.553" stroke="#8AB0DD" stroke-width="0.33" stroke-miterlimit="10"/>
<path d="M166.961 125.478V92.2942" stroke="#8AB0DD" stroke-width="0.33" stroke-miterlimit="10"/>
<path d="M183.553 125.478H150.369V142.072H183.553V125.478Z" stroke="#8AB0DD" stroke-width="0.33" stroke-miterlimit="10"/>
<path d="M150.369 142.072C150.421 137.705 152.192 133.536 155.298 130.467C158.404 127.398 162.594 125.677 166.961 125.677C171.327 125.677 175.517 127.398 178.623 130.467C181.729 133.536 183.5 137.705 183.553 142.072" stroke="#8AB0DD" stroke-width="0.33" stroke-miterlimit="10"/>
<path d="M150.369 142.072H183.553" stroke="#8AB0DD" stroke-width="0.33" stroke-miterlimit="10"/>
<path d="M166.961 142.072V125.478" stroke="#8AB0DD" stroke-width="0.33" stroke-miterlimit="10"/>
<path d="M150.368 125.478H117.184V142.072H150.368V125.478Z" stroke="#8AB0DD" stroke-width="0.33" stroke-miterlimit="10"/>
<path d="M117.184 142.072C117.237 137.705 119.008 133.536 122.114 130.467C125.219 127.398 129.41 125.677 133.776 125.677C138.143 125.677 142.333 127.398 145.439 130.467C148.545 133.536 150.316 137.705 150.368 142.072" stroke="#8AB0DD" stroke-width="0.33" stroke-miterlimit="10"/>
<path d="M117.184 142.072H150.368" stroke="#8AB0DD" stroke-width="0.33" stroke-miterlimit="10"/>
<path d="M133.775 142.072V125.478" stroke="#8AB0DD" stroke-width="0.33" stroke-miterlimit="10"/>
<path d="M117.182 125.478H83.9976V142.072H117.182V125.478Z" stroke="#8AB0DD" stroke-width="0.33" stroke-miterlimit="10"/>
<path d="M84 142.072C84.0522 137.705 85.8233 133.536 88.9292 130.467C92.0352 127.398 96.2256 125.677 100.592 125.677C104.958 125.677 109.149 127.398 112.255 130.467C115.361 133.536 117.132 137.705 117.184 142.072" stroke="#8AB0DD" stroke-width="0.33" stroke-miterlimit="10"/>
<path d="M83.9976 142.072H117.184" stroke="#8AB0DD" stroke-width="0.33" stroke-miterlimit="10"/>
<path d="M100.591 142.072V125.478" stroke="#8AB0DD" stroke-width="0.33" stroke-miterlimit="10"/>
<path d="M83.9979 125.478H50.8138V142.072H83.9979V125.478Z" stroke="#8AB0DD" stroke-width="0.33" stroke-miterlimit="10"/>
<path d="M50.8138 142.072C50.8138 137.671 52.562 133.45 55.6738 130.338C58.7857 127.227 63.0062 125.478 67.407 125.478C71.8078 125.478 76.0284 127.227 79.1402 130.338C82.2521 133.45 84.0003 137.671 84.0003 142.072" stroke="#8AB0DD" stroke-width="0.33" stroke-miterlimit="10"/>
<path d="M50.8138 142.072H83.9979" stroke="#8AB0DD" stroke-width="0.33" stroke-miterlimit="10"/>
<path d="M67.4071 142.072V125.478" stroke="#8AB0DD" stroke-width="0.33" stroke-miterlimit="10"/>
<path d="M50.8136 125.478H17.6295V142.072H50.8136V125.478Z" stroke="#8AB0DD" stroke-width="0.33" stroke-miterlimit="10"/>
<path d="M17.6295 142.072C17.6817 137.705 19.4528 133.536 22.5588 130.467C25.6647 127.398 29.8551 125.677 34.2215 125.677C38.5879 125.677 42.7784 127.398 45.8843 130.467C48.9902 133.536 50.7613 137.705 50.8136 142.072" stroke="#8AB0DD" stroke-width="0.33" stroke-miterlimit="10"/>
<path d="M17.6295 142.072H50.8136" stroke="#8AB0DD" stroke-width="0.33" stroke-miterlimit="10"/>
<path d="M34.2228 142.072V125.478" stroke="#8AB0DD" stroke-width="0.33" stroke-miterlimit="10"/>
<path d="M17.6298 125.478H-15.5543V142.072H17.6298V125.478Z" stroke="#8AB0DD" stroke-width="0.33" stroke-miterlimit="10"/>
<path d="M-15.5543 142.072C-15.5021 137.705 -13.731 133.536 -10.6251 130.467C-7.51913 127.398 -3.3287 125.677 1.0377 125.677C5.40411 125.677 9.59454 127.398 12.7005 130.467C15.8064 133.536 17.5775 137.705 17.6298 142.072" stroke="#8AB0DD" stroke-width="0.33" stroke-miterlimit="10"/>
<path d="M-15.5543 142.072H17.6298" stroke="#8AB0DD" stroke-width="0.33" stroke-miterlimit="10"/>
<path d="M1.03618 142.072V125.478" stroke="#8AB0DD" stroke-width="0.33" stroke-miterlimit="10"/>
<path d="M150.368 191.849H183.552V158.665H150.368V191.849Z" stroke="#8AB0DD" stroke-width="0.33" stroke-miterlimit="10"/>
<path d="M166.962 191.849C176.126 191.849 183.555 184.42 183.555 175.256C183.555 166.091 176.126 158.662 166.962 158.662C157.798 158.662 150.369 166.091 150.369 175.256C150.369 184.42 157.798 191.849 166.962 191.849Z" stroke="#8AB0DD" stroke-width="0.33" stroke-miterlimit="10"/>
<path d="M166.961 158.665V191.849" stroke="#8AB0DD" stroke-width="0.33" stroke-miterlimit="10"/>
<path d="M117.184 191.849H150.369V158.665H117.184V191.849Z" stroke="#8AB0DD" stroke-width="0.33" stroke-miterlimit="10"/>
<path d="M133.775 191.849C142.939 191.849 150.368 184.42 150.368 175.256C150.368 166.091 142.939 158.662 133.775 158.662C124.611 158.662 117.182 166.091 117.182 175.256C117.182 184.42 124.611 191.849 133.775 191.849Z" stroke="#8AB0DD" stroke-width="0.33" stroke-miterlimit="10"/>
<path d="M133.775 158.665V191.849" stroke="#8AB0DD" stroke-width="0.33" stroke-miterlimit="10"/>
<path d="M83.9978 191.849H117.182V158.665H83.9978V191.849Z" stroke="#8AB0DD" stroke-width="0.33" stroke-miterlimit="10"/>
<path d="M100.591 191.849C109.755 191.849 117.184 184.42 117.184 175.256C117.184 166.091 109.755 158.662 100.591 158.662C91.4267 158.662 83.9976 166.091 83.9976 175.256C83.9976 184.42 91.4267 191.849 100.591 191.849Z" stroke="#8AB0DD" stroke-width="0.33" stroke-miterlimit="10"/>
<path d="M100.591 158.665V191.849" stroke="#8AB0DD" stroke-width="0.33" stroke-miterlimit="10"/>
<path d="M50.8159 191.849H84V158.665H50.8159L50.8159 191.849Z" stroke="#8AB0DD" stroke-width="0.33" stroke-miterlimit="10"/>
<path d="M67.407 191.849C76.5712 191.849 84.0003 184.42 84.0003 175.256C84.0003 166.091 76.5712 158.662 67.407 158.662C58.2428 158.662 50.8138 166.091 50.8138 175.256C50.8138 184.42 58.2428 191.849 67.407 191.849Z" stroke="#8AB0DD" stroke-width="0.33" stroke-miterlimit="10"/>
<path d="M67.4071 158.665V191.849" stroke="#8AB0DD" stroke-width="0.33" stroke-miterlimit="10"/>
<path d="M17.6297 191.849H50.8138L50.8138 158.665H17.6297L17.6297 191.849Z" stroke="#8AB0DD" stroke-width="0.33" stroke-miterlimit="10"/>
<path d="M34.2227 191.849C43.3869 191.849 50.816 184.42 50.816 175.256C50.816 166.091 43.3869 158.662 34.2227 158.662C25.0585 158.662 17.6295 166.091 17.6295 175.256C17.6295 184.42 25.0585 191.849 34.2227 191.849Z" stroke="#8AB0DD" stroke-width="0.33" stroke-miterlimit="10"/>
<path d="M34.2228 158.665V191.849" stroke="#8AB0DD" stroke-width="0.33" stroke-miterlimit="10"/>
<path d="M-15.5546 191.849H17.6295L17.6295 158.665H-15.5546L-15.5546 191.849Z" stroke="#8AB0DD" stroke-width="0.33" stroke-miterlimit="10"/>
<path d="M1.03658 191.849C10.2008 191.849 17.6298 184.42 17.6298 175.256C17.6298 166.091 10.2008 158.662 1.03658 158.662C-8.12762 158.662 -15.5567 166.091 -15.5567 175.256C-15.5567 184.42 -8.12762 191.849 1.03658 191.849Z" stroke="#8AB0DD" stroke-width="0.33" stroke-miterlimit="10"/>
<path d="M1.03618 158.665V191.849" stroke="#8AB0DD" stroke-width="0.33" stroke-miterlimit="10"/>
<path d="M-15.5546 158.665H17.6295L17.6295 142.072H-15.5546V158.665Z" stroke="#8AB0DD" stroke-width="0.33" stroke-miterlimit="10"/>
<path d="M17.6295 142.072C17.6558 144.267 17.2461 146.446 16.424 148.482C15.602 150.518 14.384 152.371 12.8407 153.933C11.2974 155.495 9.45939 156.735 7.43329 157.581C5.40719 158.428 3.23326 158.863 1.0375 158.863C-1.15827 158.863 -3.3322 158.428 -5.3583 157.581C-7.3844 156.735 -9.22237 155.495 -10.7657 153.933C-12.309 152.371 -13.527 150.518 -14.349 148.482C-15.1711 146.446 -15.5808 144.267 -15.5546 142.072" stroke="#8AB0DD" stroke-width="0.33" stroke-miterlimit="10"/>
<path d="M17.6298 142.072H-15.5543" stroke="#8AB0DD" stroke-width="0.33" stroke-miterlimit="10"/>
<path d="M1.03618 142.072V158.665" stroke="#8AB0DD" stroke-width="0.33" stroke-miterlimit="10"/>
<path d="M17.6297 158.665H50.8138V142.072H17.6297V158.665Z" stroke="#8AB0DD" stroke-width="0.33" stroke-miterlimit="10"/>
<path d="M50.8139 142.072C50.8401 144.267 50.4304 146.446 49.6083 148.482C48.7863 150.518 47.5683 152.371 46.025 153.933C44.4817 155.495 42.6437 156.735 40.6176 157.581C38.5915 158.428 36.4176 158.863 34.2218 158.863C32.026 158.863 29.8521 158.428 27.826 157.581C25.7999 156.735 23.9619 155.495 22.4186 153.933C20.8753 152.371 19.6573 150.518 18.8353 148.482C18.0132 146.446 17.6035 144.267 17.6298 142.072" stroke="#8AB0DD" stroke-width="0.33" stroke-miterlimit="10"/>
<path d="M50.8136 142.072H17.6295" stroke="#8AB0DD" stroke-width="0.33" stroke-miterlimit="10"/>
<path d="M34.2228 142.072V158.665" stroke="#8AB0DD" stroke-width="0.33" stroke-miterlimit="10"/>
<path d="M50.8159 158.665H84V142.072H50.8159V158.665Z" stroke="#8AB0DD" stroke-width="0.33" stroke-miterlimit="10"/>
<path d="M84.0003 142.072C84.0003 144.251 83.5711 146.408 82.7372 148.422C81.9033 150.435 80.681 152.264 79.1402 153.805C77.5994 155.346 75.7702 156.568 73.757 157.402C71.7438 158.236 69.5861 158.665 67.407 158.665C65.228 158.665 63.0703 158.236 61.0571 157.402C59.0439 156.568 57.2147 155.346 55.6738 153.805C54.133 152.264 52.9108 150.435 52.0769 148.422C51.243 146.408 50.8138 144.251 50.8138 142.072" stroke="#8AB0DD" stroke-width="0.33" stroke-miterlimit="10"/>
<path d="M83.9979 142.072H50.8138" stroke="#8AB0DD" stroke-width="0.33" stroke-miterlimit="10"/>
<path d="M67.4071 142.072V158.665" stroke="#8AB0DD" stroke-width="0.33" stroke-miterlimit="10"/>
<path d="M83.9978 158.665H117.182V142.072H83.9978V158.665Z" stroke="#8AB0DD" stroke-width="0.33" stroke-miterlimit="10"/>
<path d="M117.184 142.072C117.211 144.267 116.801 146.446 115.979 148.482C115.157 150.518 113.939 152.371 112.395 153.933C110.852 155.495 109.014 156.735 106.988 157.581C104.962 158.428 102.788 158.863 100.592 158.863C98.3965 158.863 96.2226 158.428 94.1965 157.581C92.1704 156.735 90.3324 155.495 88.7891 153.933C87.2457 152.371 86.0278 150.518 85.2057 148.482C84.3837 146.446 83.9739 144.267 84.0002 142.072" stroke="#8AB0DD" stroke-width="0.33" stroke-miterlimit="10"/>
<path d="M117.184 142.072H83.9976" stroke="#8AB0DD" stroke-width="0.33" stroke-miterlimit="10"/>
<path d="M100.591 142.072V158.665" stroke="#8AB0DD" stroke-width="0.33" stroke-miterlimit="10"/>
<path d="M117.184 158.665H150.369V142.072H117.184V158.665Z" stroke="#8AB0DD" stroke-width="0.33" stroke-miterlimit="10"/>
<path d="M150.368 142.072C150.394 144.267 149.985 146.446 149.163 148.482C148.341 150.518 147.123 152.371 145.579 153.933C144.036 155.495 142.198 156.735 140.172 157.581C138.146 158.428 135.972 158.863 133.776 158.863C131.58 158.863 129.406 158.428 127.38 157.581C125.354 156.735 123.516 155.495 121.973 153.933C120.43 152.371 119.212 150.518 118.39 148.482C117.568 146.446 117.158 144.267 117.184 142.072" stroke="#8AB0DD" stroke-width="0.33" stroke-miterlimit="10"/>
<path d="M150.368 142.072H117.184" stroke="#8AB0DD" stroke-width="0.33" stroke-miterlimit="10"/>
<path d="M133.775 142.072V158.665" stroke="#8AB0DD" stroke-width="0.33" stroke-miterlimit="10"/>
<path d="M150.368 158.665H183.552V142.072H150.368V158.665Z" stroke="#8AB0DD" stroke-width="0.33" stroke-miterlimit="10"/>
<path d="M183.552 142.072C183.579 144.267 183.169 146.446 182.347 148.482C181.525 150.518 180.307 152.371 178.764 153.933C177.22 155.495 175.382 156.735 173.356 157.581C171.33 158.428 169.156 158.863 166.96 158.863C164.765 158.863 162.591 158.428 160.565 157.581C158.539 156.735 156.701 155.495 155.157 153.933C153.614 152.371 152.396 150.518 151.574 148.482C150.752 146.446 150.342 144.267 150.368 142.072" stroke="#8AB0DD" stroke-width="0.33" stroke-miterlimit="10"/>
<path d="M183.553 142.072H150.369" stroke="#8AB0DD" stroke-width="0.33" stroke-miterlimit="10"/>
<path d="M166.961 142.072V158.665" stroke="#8AB0DD" stroke-width="0.33" stroke-miterlimit="10"/>
<path d="M50.8138 50.8135H42.5171V59.1101H50.8138V50.8135Z" fill="white"/>
<path d="M92.2824 133.787H83.9976V142.072H92.2824V133.787Z" fill="black"/>
<path d="M117.184 59.1101H59.1104V50.8135H50.8138V-4.30398H117.184V59.1101Z" fill="white"/>
<path d="M0.000274658 76.8093H150.307V93.4002H167.936V126.587H67.3666V143.178H0.000274658V76.8093Z" fill="black"/>
<path d="M84.0003 142.072H67.4285V170.027H84.0003V142.072Z" fill="black"/>
<path d="M73.1797 33.3766L79.8864 29.5028C80.2691 29.29 80.6056 29.0031 80.8763 28.659C81.1471 28.3149 81.3466 27.9203 81.4634 27.4983C81.5802 27.0763 81.6119 26.6353 81.5566 26.201C81.5013 25.7666 81.3601 25.3476 81.1413 24.9683C80.9225 24.589 80.6305 24.2571 80.2821 23.9918C79.9338 23.7265 79.5362 23.5331 79.1124 23.4229C78.6886 23.3128 78.2471 23.2881 77.8137 23.3502C77.3803 23.4123 76.9635 23.56 76.5877 23.7847L64.9948 30.4772L73.1797 33.3766Z" fill="#ED352F"/>
<path d="M78.2348 43.3297C78.9617 43.33 79.6683 43.0905 80.2451 42.6482C80.8219 42.2059 81.2366 41.5856 81.4248 40.8836C81.613 40.1815 81.5643 39.437 81.2862 38.7654C81.008 38.0939 80.516 37.533 79.8865 37.1696L68.296 30.4772C67.5377 30.0394 66.6366 29.9208 65.7909 30.1475C64.9452 30.3741 64.2242 30.9274 63.7864 31.6857C63.3487 32.4439 63.2301 33.345 63.4567 34.1907C63.6834 35.0364 64.2367 35.7575 64.9949 36.1952L76.5878 42.8877C77.0883 43.1774 77.6565 43.3299 78.2348 43.3297Z" fill="#4B7ABD"/>
<path d="M89.7632 43.3297C90.3422 43.3297 90.9111 43.1772 91.4125 42.8876L103.003 36.1952L94.9227 33.2364L88.1114 37.1696C87.4819 37.5329 86.9899 38.0939 86.7118 38.7654C86.4337 39.437 86.3849 40.1815 86.5732 40.8836C86.7614 41.5856 87.1761 42.2059 87.7529 42.6482C88.3297 43.0905 89.0363 43.33 89.7632 43.3297Z" fill="#FCB912"/>
<path d="M101.349 36.6373C102.077 36.6402 102.785 36.4026 103.364 35.9612C103.943 35.5199 104.36 34.8996 104.549 34.1969C104.739 33.4942 104.691 32.7485 104.413 32.0757C104.136 31.403 103.643 30.841 103.013 30.4772L91.4221 23.7847C91.0466 23.568 90.6322 23.4273 90.2023 23.3707C89.7725 23.3142 89.3358 23.3428 88.917 23.455C88.4983 23.5672 88.1057 23.7608 87.7618 24.0248C87.4179 24.2887 87.1293 24.6178 86.9125 24.9932C86.6958 25.3687 86.5551 25.7832 86.4985 26.213C86.4419 26.6428 86.4706 27.0795 86.5828 27.4983C86.695 27.917 86.8886 28.3096 87.1525 28.6535C87.4165 28.9975 87.7456 29.286 88.121 29.5028L99.7116 36.1952C100.209 36.4829 100.774 36.6353 101.349 36.6373Z" fill="#00AC4E"/>
<path d="M42.4839 107.105L39.4514 108.754L38.4675 106.615C37.9369 107.287 37.2599 107.829 36.488 108.2C35.7162 108.571 34.87 108.76 34.0138 108.754C30.3111 108.754 28.3742 105.689 28.3742 100.945C28.3742 95.7973 30.6581 93.0191 34.3037 93.0191C36.0101 93.0191 37.341 93.656 38.2085 94.8419V87.263H41.3313V104.79L42.4839 107.105ZM38.2061 105.023V96.9642C37.3949 96.2836 36.3726 95.9056 35.3138 95.8947C32.999 95.8947 31.6396 97.6582 31.6396 100.985C31.6396 104.168 32.9135 105.931 35.2544 105.931C36.3037 105.914 37.3265 105.599 38.2037 105.023H38.2061Z" fill="white"/>
<path d="M57.9884 101.242H47.7477C47.9497 103.875 50.0031 105.639 53.2424 105.639C54.8893 105.639 56.6836 105.292 57.8981 104.655L56.9142 107.866C55.9017 108.417 54.1954 108.764 52.2299 108.764C47.5742 108.764 44.5085 105.61 44.5085 100.81C44.5085 96.0088 47.4293 93.0286 52.085 93.0286C55.9326 93.0286 58.3615 95.2269 58.3615 98.7847C58.3592 99.6177 58.2335 100.446 57.9884 101.242ZM47.9236 99.0746H55.291C55.146 96.8169 54.0765 95.7474 52.0802 95.7474C49.908 95.7379 48.4108 96.9808 47.9212 99.0651L47.9236 99.0746Z" fill="white"/>
<path d="M65.5936 108.372L59.6925 93.3993H63.1362L66.9791 103.856L67.414 105.156H67.5281L67.9701 103.856L71.7727 93.3993H75.1569L69.2868 108.372H65.5936Z" fill="white"/>
<path d="M85.4024 93.4255H92.1708L91.7359 95.8258H84.9698L82.5933 109.303C81.9278 113.063 79.411 114.48 75.8818 114.48C74.8086 114.486 73.7393 114.35 72.702 114.076L72.6425 111.644C73.6632 111.816 74.6972 111.895 75.7321 111.882C77.8449 111.882 79.2328 111.043 79.5512 109.28L81.9278 95.8306H77.2174L77.6524 93.4302H82.3651L82.6028 92.0399C83.2682 88.3111 85.7541 86.8923 89.2572 86.8923C90.3411 86.8779 91.4217 87.0147 92.4679 87.2987L92.525 89.7846C91.5107 89.5626 90.4732 89.4652 89.4354 89.4946C87.3535 89.4946 85.9632 90.3336 85.6448 92.1089L85.4024 93.4255Z" fill="white"/>
<path d="M106.14 101.242H95.9021C96.1041 103.875 98.1575 105.639 101.397 105.639C103.044 105.639 104.838 105.292 106.052 104.655L105.069 107.866C104.056 108.417 102.35 108.764 100.384 108.764C95.7286 108.764 92.6629 105.61 92.6629 100.81C92.6629 96.0088 95.5837 93.0286 100.239 93.0286C104.087 93.0286 106.516 95.2269 106.516 98.7847C106.513 99.6178 106.386 100.446 106.14 101.242ZM96.0756 99.0746H103.443C103.298 96.8169 102.229 95.7474 100.232 95.7474C98.0696 95.7379 96.5676 96.9808 96.0756 99.0651V99.0746Z" fill="white"/>
<path d="M109.494 107.481L109.292 104.125C110.623 105.052 113.052 105.862 115.597 105.862C117.534 105.862 118.924 105.254 118.924 103.894C118.924 101.059 109.613 103.692 109.613 97.9077C109.613 95.2174 111.638 92.9335 116.467 92.9335C119.416 92.9335 121.674 93.6465 121.674 95.448C121.643 95.9616 121.484 96.4594 121.21 96.8953C119.649 96.2193 117.967 95.8653 116.265 95.8543C113.95 95.8543 112.736 96.7218 112.736 97.6772C112.736 100.192 122.163 97.9933 122.163 103.633C122.163 106.787 119.388 108.754 115.252 108.754C113.264 108.744 111.301 108.309 109.494 107.481Z" fill="white"/>
<path d="M138.271 105.197L137.635 108.117C136.466 108.54 135.233 108.755 133.991 108.754C130.26 108.754 128.668 106.815 128.668 104.068V96.0278H124.418V93.3993H128.668V89.2879H131.793V93.3993H137.841V96.0326H131.793V103.117C131.793 105.056 132.805 105.924 134.569 105.924C135.581 105.919 137.433 105.689 138.271 105.197Z" fill="white"/>
</g>
</svg>
