<svg width="348" height="348" viewBox="0 0 348 348" fill="none" xmlns="http://www.w3.org/2000/svg">
<path d="M254.659 36.4147C271.999 19.3895 299.857 19.6444 316.882 36.9839V36.9839L31.4638 317.227V317.227C14.4386 299.888 14.6934 272.03 32.033 255.005L254.659 36.4147Z" fill="#3DB078"/>
<path d="M316.283 35.5186V35.5186C333.308 52.8581 333.053 80.7162 315.714 97.7413L93.0876 316.331C75.748 333.356 47.8899 333.102 30.8648 315.762V315.762L316.283 35.5186Z" fill="#FFCD37"/>
<path d="M34.8291 93.2229C17.8026 75.8846 18.0555 48.0265 35.3938 31V31L315.658 316.398V316.398C298.32 333.424 270.461 333.172 253.435 315.833L34.8291 93.2229Z" fill="#5591F5"/>
<path d="M35 30.8291V30.8291C52.3383 13.8027 80.1964 14.0555 97.2228 31.3938L315.829 254.004C332.855 271.343 332.602 299.201 315.264 316.227V316.227L35 30.8291Z" fill="#DF574B"/>
</svg>
